<?xml version="1.0" standalone="no"?><!DOCTYPE svg PUBLIC "-//W3C//DTD SVG 1.1//EN" "http://www.w3.org/Graphics/SVG/1.1/DTD/svg11.dtd"><svg t="1711335973908" class="icon" viewBox="0 0 1024 1024" version="1.1" xmlns="http://www.w3.org/2000/svg" p-id="12650" xmlns:xlink="http://www.w3.org/1999/xlink" width="200" height="200"><path d="M116.61 551.4h-3.87L74.07 887.89c-1.93 11.6 9.67 23.2 21.27 23.2H134c13.54 0 23.21-11.6 21.27-23.2z m-1.93-98.63a36.72 36.72 0 0 0-36.74 36.75c0 21.27 15.47 36.74 36.74 36.74s36.74-15.47 36.74-36.74a36.72 36.72 0 0 0-36.74-36.75z m408-334.56l-379 259.14c-17.41 11.6-17.41 38.68 0 50.28L321.6 549.46l201.12 137.3c9.67 7.74 25.14 7.74 34.81 0l201.12-137.3 177.92-121.83c17.41-11.6 17.41-38.68 0-50.28l-379-259.14c-11.64-5.8-25.18-5.8-34.85 0z m247.53 491.2l67.68 46.41c11.6 7.74 11.6 27.07 0 34.81L551.73 886c-7.74 5.8-17.41 5.8-23.2 0L242.31 690.63c-11.6-7.74-11.6-27.07 0-34.81L310 609.41c7.74-5.8 17.41-5.8 23.21 0l193.38 131.5c7.73 5.8 17.4 5.8 23.2 0l193.39-131.5c9.67-5.81 19.34-5.81 27.08 0z" fill="#231815" p-id="12651"></path></svg>