<?xml version="1.0" standalone="no"?><!DOCTYPE svg PUBLIC "-//W3C//DTD SVG 1.1//EN" "http://www.w3.org/Graphics/SVG/1.1/DTD/svg11.dtd"><svg t="1711336184389" class="icon" viewBox="0 0 1024 1024" version="1.1" xmlns="http://www.w3.org/2000/svg" p-id="14654" xmlns:xlink="http://www.w3.org/1999/xlink" width="200" height="200"><path d="M871.228952 663.161905l-58.514285 32.52419 68.266666 39.009524-373.857523 214.552381-370.590477-214.552381 64.999619-39.009524L146.285714 663.161905l-81.286095 45.494857c-15.11619 8.679619-18.383238 21.699048-9.752381 39.009524l6.534095 6.534095v3.218286L494.104381 1004.495238l13.019429 3.267048 16.237714-3.267048 425.886476-247.076571c17.310476-6.485333 21.650286-19.504762 12.970667-39.009524l-12.970667-9.752381-78.019048-45.494857z m78.019048-113.761524c17.310476-10.873905 21.650286-23.893333 12.970667-39.009524-6.485333-6.534095-10.825143-9.752381-12.970667-9.752381l-78.019048-48.761905-58.514285 32.475429 68.266666 39.009524-373.857523 214.552381-370.590477-214.552381L201.532952 487.619048 146.285714 451.876571l-81.286095 48.761905c-15.11619 8.630857-18.383238 21.650286-9.752381 39.009524l6.534095 6.485333 432.323048 250.294857 13.019429 3.267048 16.237714-3.267048 425.886476-247.027809zM64.999619 292.571429c-15.11619 6.485333-18.383238 18.432-9.752381 35.742476l6.534095 9.752381 432.323048 250.343619 13.019429 3.218285 16.237714-3.218285L949.248 341.333333c17.310476-10.825143 21.650286-23.844571 12.970667-39.009523l-12.970667-13.019429L523.361524 42.276571 510.390857 39.009524l-16.286476 3.267047L64.999619 292.571429z m445.391238-191.780572l370.590476 214.552381-373.857523 214.552381-370.590477-214.552381 373.857524-214.552381z" fill="#000000" p-id="14655"></path></svg>