<?xml version="1.0" standalone="no"?><!DOCTYPE svg PUBLIC "-//W3C//DTD SVG 1.1//EN" "http://www.w3.org/Graphics/SVG/1.1/DTD/svg11.dtd"><svg t="1711335729013" class="icon" viewBox="0 0 1024 1024" version="1.1" xmlns="http://www.w3.org/2000/svg" p-id="10762" xmlns:xlink="http://www.w3.org/1999/xlink" width="200" height="200"><path d="M12.8 202.666667A115.2 115.2 0 0 1 128 87.466667h768a115.2 115.2 0 0 1 115.2 115.2v618.666666a115.2 115.2 0 0 1-115.2 115.2H128a115.2 115.2 0 0 1-115.2-115.2V202.666667zM128 147.2a55.466667 55.466667 0 0 0-55.466667 55.466667v618.666666a55.466667 55.466667 0 0 0 55.466667 55.466667h768a55.466667 55.466667 0 0 0 55.466667-55.466667V202.666667a55.466667 55.466667 0 0 0-55.466667-55.466667H128z" p-id="10763"></path><path d="M341.333333 328.533333a76.8 76.8 0 1 0 0 153.6 76.8 76.8 0 0 0 0-153.6zM204.8 405.333333a136.533333 136.533333 0 1 1 229.12 100.352c24.064 13.653333 43.52 32.128 58.709333 52.309334 30.634667 40.576 44.928 88.490667 49.024 120.96a29.866667 29.866667 0 0 1-59.306666 7.424 204.885333 204.885333 0 0 0-37.376-92.373334C422.656 564.437333 389.973333 541.866667 341.333333 541.866667s-81.322667 22.570667-103.637333 52.138666a204.885333 204.885333 0 0 0-37.376 92.373334 29.866667 29.866667 0 1 1-59.306667-7.424c4.096-32.469333 18.389333-80.384 49.024-120.96a194.005333 194.005333 0 0 1 58.709334-52.309334A136.192 136.192 0 0 1 204.8 405.333333z m413.866667-72.533333a29.866667 29.866667 0 1 0 0 59.733333H853.333333a29.866667 29.866667 0 1 0 0-59.733333h-234.666666z m-29.866667 179.2a29.866667 29.866667 0 0 1 29.866667-29.866667H853.333333a29.866667 29.866667 0 1 1 0 59.733334h-234.666666a29.866667 29.866667 0 0 1-29.866667-29.866667z m29.866667 119.466667a29.866667 29.866667 0 1 0 0 59.733333H853.333333a29.866667 29.866667 0 1 0 0-59.733333h-234.666666z" p-id="10764"></path></svg>